<?xml version="1.0" encoding="utf-8"?>
<!-- Generator: Adobe Illustrator 23.0.6, SVG Export Plug-In . SVG Version: 6.00 Build 0)  -->
<svg version="1.1" xmlns="http://www.w3.org/2000/svg" xmlns:xlink="http://www.w3.org/1999/xlink" x="0px" y="0px"
	 viewBox="0 0 443.4 273.7" style="enable-background:new 0 0 443.4 273.7;" xml:space="preserve">
<style type="text/css">
	.st0{fill-rule:evenodd;clip-rule:evenodd;fill:#F7FF69;}
	.st1{fill-rule:evenodd;clip-rule:evenodd;fill:#B28B67;}
	.st2{fill-rule:evenodd;clip-rule:evenodd;fill:#2F3676;}
	.st3{fill-rule:evenodd;clip-rule:evenodd;fill:#E4E4E4;}
	.st4{fill-rule:evenodd;clip-rule:evenodd;fill:#5C63AB;}
	.st5{fill-rule:evenodd;clip-rule:evenodd;fill:#191847;}
	.st6{fill-rule:evenodd;clip-rule:evenodd;fill:#E6C300;}
	.st7{fill-rule:evenodd;clip-rule:evenodd;fill:#F2F2F2;}
	.st8{fill-rule:evenodd;clip-rule:evenodd;fill:#FFD900;}
	.st9{fill-rule:evenodd;clip-rule:evenodd;fill:#6797B2;}
	.st10{fill-rule:evenodd;clip-rule:evenodd;fill:#005BBF;}
</style>
<g id="background">
	<path class="st0" d="M228.7,163.2c10.7,20.2,33.7,2.2,62.8-34.5c13-15.1,23.7-2.2,62.8,12.9c82,29.4,62.5,55,42.4,80.6
		c-19.9,21.8-49.3,33.6-68.9,37.5c-59.6,9.1-116.9,7.3-157.8-9.9c-16.7-10.2-11-27.8-26.6-37.5c-69.4-33.7-73.9-67.8,1-102.6
		C176.2,95.2,203.4,120.8,228.7,163.2z"/>
</g>
<g id="person">
	<g id="Layer_2">
		<path id="LegLower_1_" class="st1" d="M54.2,129.2c49.6-6.7,79.7-9.7,90.4-8.9c7,0.5,11.9,19.1-1.4,20.9
			c-5.6,0.7-20.9,1.6-38.4,1.9c-10.3,0.2-27.1-1.2-50.4-4.2L54.2,129.2z"/>
		<path class="st2" d="M68.4,123.9c5,0.4,62.5-7.8,79.2-6.5c7.3,0.6,15.4,29.3,1.5,31.1l-74,13.5L68.4,123.9z"/>
		
			<g id="Lower-Leg_1_" transform="translate(220.172961, 98.499284) rotate(39.000000) translate(-220.172961, -98.499284) translate(192.672961, 26.499284)">
			<path class="st1" d="M20.2,226.7c-1.7-3-22.3-37.3-35.9-62.2c-5.5-10,15-17.8,20.3-7.1c1.8,3.6,3.6,7.4,5.5,11.4
				c6.6,13.9,16.5,45.4,19.1,54.6C30.7,229.3,22.6,231,20.2,226.7z"/>
		</g>
		
			<g transform="translate(189.500000, 140.000000) rotate(30.000000) translate(-189.500000, -140.000000) translate(159.000000, 120.000000)">
			<path id="shoe_1_" class="st3" d="M14.9,110.6c-0.7-0.5-1.6-0.3-2.1,0.4l0,0c-1.2,1.8-2.3,3-3.3,3.6c-1.2,0.7-3,1.2-5.4,1.4
				l-2.7-2c0,0,0,0,0,0c-0.3-0.2-0.8-0.2-1.1,0.2L-12.2,132c-1.2,1-2.8,2.3-4.7,3.7c-1.9,1.5-1.4,3.5,1.4,6.1
				c23.1-13.8,35.3-21.2,36.6-22c-1-2.5-1.8-4.3-2.5-5.5C18.1,113.4,16.9,112.2,14.9,110.6C14.9,110.7,14.9,110.6,14.9,110.6z"/>
		</g>
		<g transform="translate(288.000000, 132.000000)">
			<path class="st3" d="M-227.9,10.7c0.5-0.7,0.3-1.6-0.4-2.1v0c-1.8-1.2-3-2.3-3.6-3.2c-0.7-1.2-1.2-3-1.5-5.4l1.9-2.7c0,0,0,0,0,0
				c0.2-0.3,0.1-0.8-0.2-1.1l-18-12.2c-1-1.2-2.3-2.8-3.8-4.6c-1.5-1.9-3.5-1.4-6.1,1.5c14.2,22.8,21.8,34.9,22.6,36.2
				c2.5-1,4.3-1.9,5.4-2.6C-230.7,14-229.5,12.7-227.9,10.7C-228,10.8-227.9,10.7-227.9,10.7z"/>
		</g>
		<path id="Leg-and-Butt_1_" class="st4" d="M149.2,160.1l-15.4,42.2L97.7,185c22.4-42.6,33.6-63.9,33.7-64.1
			c2.3-3,10.5-9.7,17.4-5.5c36.4,24.5,67,46.1,71.2,49.9l11.6,27.5c-20.2,17.2-33.9,18-49.1,1.1c-5.3-5.9-15.7-17.7-31.1-35.3
			C150.8,158.3,150.1,158.7,149.2,160.1z"/>
	</g>
	<g id="Layer_3">
		<g>
			<g id="Head" transform="translate(54.000000, 31.000000)">
				<path class="st1" d="M251.5,163.6l-1.3-24l28.9,2.4c-4.3-6.2-6.5-12.5-5.9-15.5c1.5-7.6,28.8-9.8,39.9-4.6
					c11.1,5.2,17.5,34.7-3.8,37.4c-7.4,0.9-14.2-1.8-19.8-6.1L251.5,163.6z"/>
			</g>
			<path id="hair" class="st5" d="M371.1,200.4c0,2.6-1,5.7-3.4,7.2c-3.2,1.9-7.1-0.4-8.8-3c-4.1,5.2-10.5-3.4-11-7.1
				c-2.6,0.8-3.7-2.2-4.5-3.9c-1.3,1.1-3.3,1.6-4.7,0.4c-1.5-1.3-1.7-3.8-0.7-5.5c0.3-0.4,0.6-0.5,0.9-0.8c0.2-0.3,0.2-0.6,0.3-1
				c0.2-0.9,1.1-1.5,2-1.9c1.6-0.9,3.6-1.3,4.9-2.7c0.8,1.6,1.6,3.6,3.3,4.6c3,1.7,6.9-0.6,7.5-3.6c0.5-2.7-1.1-5.7-3.5-7.3
				c1.6-0.7,3-1.6,4.2-2.8c0.7-0.7,1.7-2,2.2-0.4c1.1,3.4,1.7,7.1,2.7,10.6c-0.2-3.6-0.8-7.3-0.6-10.9c0-1.1,0.2-2.3,1.3-2.9
				c1.5-0.8,3.3-1.3,4.9-1.5c-0.5-1.2-1.2-2.4-1.3-3.7c0-0.5,0.1-1,0.1-1.5c0-0.6-0.3-0.9-0.7-1.3c-1.6-1.6-2.8-3.5-3.4-5.7
				c-0.3-1.2-0.7-2.6-0.7-3.8c0-0.2,0.1-0.3,0.1-0.5c0-0.3-0.1-0.7-0.1-1c-0.1-0.9,0-1.8,0.6-2.5c1.3-1.6,3.7-1.3,4.6,0.5
				c1.1-1.6,2.3-3.1,3.8-4.4c0.7-0.6,1.5-1.2,2.3-1.7c0.5-0.3,1.1-0.6,1.7-0.5c1.8,0.3,0.9,3.8,0.5,4.8c0.5,0,0.7,0.1,1.1,0
				c0.4-0.1,0.7-0.1,1.1,0c0.6,0.2,1,0.7,1.3,1.2c0.3,0.7,0.5,1.4,0.6,2.1c0,0.4-0.2,1.2,0.3,1.4c0.4,0.1,1-0.1,1.3-0.2
				c0.6-0.2,1.3-0.3,1.9-0.4c0.9-0.1,1.7-0.2,2.6-0.3c0.6-0.1,1.3-0.2,1.9-0.1c1.7,0.3,1.9,2,1.6,3.3c-0.2,0.9-0.5,1.7-1,2.5
				c-0.3,0.6-0.7,1.1-1.1,1.6c-0.2,0.4-0.6,0.7-0.3,1c0.7,0.9,2.1,1.3,3,1.9c1,0.7,1.8,1.7,2.3,2.8c1,2.3,0.6,5.1-0.8,7.2
				c-0.3,0.5-0.7,0.9-1.1,1.4c-0.4,0.4-0.6,0.6-0.5,1.1c0.1,0.5,0.5,0.8,0.8,1.2c0.3,0.5,0.6,0.9,0.9,1.4c1.2,1.9,1.8,4.1,1.6,6.3
				c-0.2,2.2-1.2,4.1-3.1,5.4c-2,1.3-4.5,1.9-6.9,2.1c0.5,1.1,1.3,2,1.7,3.1c0.4,1.1,0.7,2.3,0.6,3.5c0,1.8-0.6,3.7-1.9,5.1
				c-1.7,1.7-4.2,1.8-6.5,1.5c-1.1-0.2-2.2-0.5-3.4-0.8C373,201.5,371.9,201.1,371.1,200.4"/>
		</g>
	</g>
	<g id="Layer_1">
		<title>Body/Pointing Up</title>
		<desc>Created with Sketch.</desc>
		<g>
			<path id="Skin_1_" class="st1" d="M297.3,114.9l15.1-25.6c0.7-12,1.9-17.6,3.5-16.9c2.5,1,1.3,4.4,2.9,5.3
				c1.6,0.9,5.6-2.3,9.3-5.6c3.7-3.3,3.9-0.7,3.6,0.9c-2.2,5.4-5.7,11.2-10.5,17.4l-9.9,32.9L297.3,114.9z M238.1,132.3l-11.4-27.4
				c-9.1-7.8-12.9-12.1-11.4-13c2.3-1.4,4.3,1.6,6,0.9c1.7-0.7,1.5-5.9,1.1-10.8c-0.4-4.9,1.8-3.5,2.9-2.3c3,5,5.5,11.3,7.6,18.8
				l20.3,27.7L238.1,132.3z"/>
			<path id="Coat-Back_1_" class="st6" d="M309.2,181.1c-11.2-1.4-32.5-3-39.1-5.3c-26.6-9.2-34.5-27.8-47.6-63.1l13.5-12
				c22.4,31.6,44,53.5,72.1,68.5L309.2,181.1z"/>
			<path id="Shirt_1_" class="st7" d="M313.4,187c-2.6-6-3.1-11.6-1.7-16.8c0.2-0.7-1.3-2.3-2.2-2.4c-17.2-0.3-48.9-8.1-95.2-23.2
				v66.9C256.5,208.3,287.9,202.8,313.4,187z"/>
			<path id="Coat-Front_1_" class="st8" d="M313.4,181.3c0,4.6,0,8.1,0,10.4c0,2.6-1.9,3.8-2.9,4.3c-26.6,13.8-79.4,28.7-117.5,23
				c0-12.8,0-24.7,0-35.7c0-23.1,36.7-23.5,81.5-13.1c-1.9-24.1,11.6-51.5,29-78.6l17.7,3.5C309.7,131,313.2,162.1,313.4,181.3
				C313.4,181.2,313.4,181.3,313.4,181.3z"/>
		</g>
	</g>
</g>
<g id="objects">
	<g id="obj1">
		<path class="st9" d="M296.2,14.5l53.3,57.3l5.4-39L296.2,14.5z M343.4,55.5l-24.1-25.9l26.5,8.2L343.4,55.5z"/>
	</g>
	<g id="obj2">
		<polygon class="st10" points="267.1,69.6 269.1,64.3 269.1,64.3 291.1,47 294.7,51.6 272.7,68.9 272.7,68.9 		"/>
	</g>
	<g id="obj3">
		<polygon class="st9" points="189.5,42.4 202.7,43.8 202.7,43.9 234.6,47.2 234.6,47.2 241.5,47.9 240.8,53.8 188.8,48.4 		"/>
	</g>
</g>
</svg>
